# xmcd
#
# Track frame offsets: 
#        150
#        10338
#        22546
#        35157
#        48391
#        61329
#        75633
#        87183
#        100530
#        110954
#        122971
#        133546
#
# Disc length: 2000 seconds
#
# Revision: 0
# Processed by: cddbd v1.5.2PL0 Copyright (c) Steve Scherf et al.
# Submitted via: ExactAudioCopy v1.0b1
#
DISCID=9407ce0c
DTITLE=Charlie Moore - Avery Coubty
DYEAR=1979
DGENRE=Bluegrass
TTITLE0=Avery County
TTITLE1=Streets Of Baltimore
TTITLE2=Rocks In The Mountain
TTITLE3=Blue Eyes Crying In The Rain
TTITLE4=Maple Sugar
TTITLE5=Mathew Twenty Four
TTITLE6=High Society
TTITLE7=Before The Weekends Over
TTITLE8=Lily Marlene
TTITLE9=Mansion On The Hill
TTITLE10=Just When I Needed You
TTITLE11=When It's Moonlight On My Cabin
EXTD=
EXTT0=
EXTT1=
EXTT2=
EXTT3=
EXTT4=
EXTT5=
EXTT6=
EXTT7=
EXTT8=
EXTT9=
EXTT10=
EXTT11=
PLAYORDER=
